<?xml version="1.0" encoding="utf-8"?>
<!-- Generator: Adobe Illustrator 23.0.6, SVG Export Plug-In . SVG Version: 6.00 Build 0)  -->
<svg version="1.1" id="Layer_1" xmlns="http://www.w3.org/2000/svg" xmlns:xlink="http://www.w3.org/1999/xlink" x="0px" y="0px"
	 viewBox="0 0 130 130" enable-background="new 0 0 130 130" xml:space="preserve">
<path fill="#231F20" stroke="#231F20" stroke-width="3" stroke-miterlimit="10" d="M121.2,36l-15.5,11.5l6.3,1.9l-5.1,14.8l-2.3,6.9
	L86.2,65l0,0l-0.8-0.3l-4.3,12.1l0,0c-4.9,13.9-18.2,23.9-33.8,23.9c-19.8,0-35.8-16-35.8-35.8s16-35.8,35.8-35.8
	c12.7,0,23.8,6.6,30.2,16.5c5.8-2.9,3.6-2,8-4.2c-7.5-14.3-21-21.3-38.2-21.3c-24.8,0-44.8,20.1-44.8,44.8
	c0,24.8,20.1,44.8,44.8,44.8c19.4,0,36-12.4,42.2-29.7c0.1-0.4,0.2-0.6,0.2-0.6l1.2-3.4l13.8,4.6l5.5,1.8l5.2-15.4l5-14.9l6.1,2.4
	L121.2,36z"/>
<polygon fill="#231F20" stroke="#231F20" stroke-miterlimit="10" points="29.3,68.6 63.5,47.3 46,84.5 45,68.5 "/>
</svg>
